<mxfile host="app.diagrams.net" modified="2023-03-28T09:09:09.070Z" agent="Mozilla/5.0 (X11; Linux x86_64) AppleWebKit/537.36 (KHTML, like Gecko) Chrome/110.0.0.0 Safari/537.36" etag="JzN_Be5tmcbsfLPo52J2" version="21.1.1" type="device" pages="5">
  <diagram id="vyFiZnKt61qd0D5m59x0" name="be2-graph">
    <mxGraphModel dx="2962" dy="956" grid="1" gridSize="10" guides="1" tooltips="1" connect="1" arrows="1" fold="1" page="1" pageScale="1" pageWidth="1169" pageHeight="827" math="0" shadow="0">
      <root>
        <mxCell id="0" />
        <mxCell id="1" parent="0" />
        <mxCell id="rUetvIsY-SQTjb-ctNYU-22" value="" style="group" parent="1" vertex="1" connectable="0">
          <mxGeometry x="160" y="440" width="960" height="340" as="geometry" />
        </mxCell>
        <mxCell id="rUetvIsY-SQTjb-ctNYU-23" value="" style="rounded=0;whiteSpace=wrap;html=1;strokeColor=#d79b00;fillColor=#ffe6cc;glass=0;shadow=0;sketch=0;dashed=1;strokeWidth=2;" parent="rUetvIsY-SQTjb-ctNYU-22" vertex="1">
          <mxGeometry x="-20" width="960" height="290" as="geometry" />
        </mxCell>
        <mxCell id="rUetvIsY-SQTjb-ctNYU-24" value="&lt;font style=&quot;font-size: 15px&quot; color=&quot;#ff8000&quot;&gt;ParamsWithChannelHandler (1 input, 1 output)&lt;/font&gt;" style="text;html=1;strokeColor=none;fillColor=none;align=center;verticalAlign=middle;whiteSpace=wrap;rounded=0;shadow=0;glass=0;dashed=1;sketch=0;" parent="rUetvIsY-SQTjb-ctNYU-22" vertex="1">
          <mxGeometry x="-20" width="340" height="49" as="geometry" />
        </mxCell>
        <mxCell id="rUetvIsY-SQTjb-ctNYU-30" value="UnsubscribeHandler" style="rounded=0;whiteSpace=wrap;html=1;" parent="rUetvIsY-SQTjb-ctNYU-22" vertex="1">
          <mxGeometry x="600" y="90" width="120" height="60" as="geometry" />
        </mxCell>
        <mxCell id="UaBfZhHQ0B-UcQtUIlz--14" value="" style="group" parent="1" vertex="1" connectable="0">
          <mxGeometry x="140" y="140" width="960" height="290" as="geometry" />
        </mxCell>
        <mxCell id="UaBfZhHQ0B-UcQtUIlz--9" value="" style="rounded=0;whiteSpace=wrap;html=1;strokeColor=#82b366;fillColor=#d5e8d4;glass=0;shadow=0;sketch=0;dashed=1;strokeWidth=2;" parent="UaBfZhHQ0B-UcQtUIlz--14" vertex="1">
          <mxGeometry width="960" height="290" as="geometry" />
        </mxCell>
        <mxCell id="UaBfZhHQ0B-UcQtUIlz--13" value="&lt;font style=&quot;font-size: 15px&quot; color=&quot;#006600&quot;&gt;ParamsWithMessageHandler (1 input, 1 output)&lt;/font&gt;" style="text;html=1;strokeColor=none;fillColor=none;align=center;verticalAlign=middle;whiteSpace=wrap;rounded=0;shadow=0;glass=0;dashed=1;sketch=0;" parent="UaBfZhHQ0B-UcQtUIlz--14" vertex="1">
          <mxGeometry y="1" width="340" height="49" as="geometry" />
        </mxCell>
        <mxCell id="9vvj3N_ZbqNBOyANyDOC-9" value="Handlers" style="shape=cube;whiteSpace=wrap;html=1;boundedLbl=1;backgroundOutline=1;darkOpacity=0.05;darkOpacity2=0.1;" parent="UaBfZhHQ0B-UcQtUIlz--14" vertex="1">
          <mxGeometry x="600" y="132.67000000000002" width="140" height="93.33" as="geometry" />
        </mxCell>
        <mxCell id="9vvj3N_ZbqNBOyANyDOC-13" value="LaoHandler,&amp;nbsp;&lt;br&gt;RollCallHandler,&lt;br&gt;&lt;font style=&quot;font-size: 18px&quot;&gt;...&lt;/font&gt;" style="whiteSpace=wrap;html=1;shape=mxgraph.basic.cloud_callout" parent="UaBfZhHQ0B-UcQtUIlz--14" vertex="1">
          <mxGeometry x="700" y="24" width="170" height="120" as="geometry" />
        </mxCell>
        <mxCell id="rUetvIsY-SQTjb-ctNYU-5" style="edgeStyle=orthogonalEdgeStyle;rounded=0;orthogonalLoop=1;jettySize=auto;html=1;exitX=0.5;exitY=0;exitDx=0;exitDy=0;entryX=0.5;entryY=1;entryDx=0;entryDy=0;" parent="1" source="rZ91b2XxjQ6Zvt-jZUCI-1" target="rZ91b2XxjQ6Zvt-jZUCI-2" edge="1">
          <mxGeometry relative="1" as="geometry" />
        </mxCell>
        <mxCell id="rZ91b2XxjQ6Zvt-jZUCI-1" value="SchemaVerifier" style="rounded=0;whiteSpace=wrap;html=1;" parent="1" vertex="1">
          <mxGeometry x="-200" y="530" width="120" height="60" as="geometry" />
        </mxCell>
        <mxCell id="rUetvIsY-SQTjb-ctNYU-6" style="edgeStyle=orthogonalEdgeStyle;rounded=0;orthogonalLoop=1;jettySize=auto;html=1;exitX=0.5;exitY=0;exitDx=0;exitDy=0;entryX=0.5;entryY=1;entryDx=0;entryDy=0;" parent="1" source="rZ91b2XxjQ6Zvt-jZUCI-2" target="rZ91b2XxjQ6Zvt-jZUCI-3" edge="1">
          <mxGeometry relative="1" as="geometry" />
        </mxCell>
        <mxCell id="rZ91b2XxjQ6Zvt-jZUCI-2" value="Decoder (Parser)&lt;br&gt;until Message" style="rounded=0;whiteSpace=wrap;html=1;" parent="1" vertex="1">
          <mxGeometry x="-200" y="410" width="120" height="60" as="geometry" />
        </mxCell>
        <mxCell id="Nf32lw-0SpVpwIQLNDtx-11" style="edgeStyle=orthogonalEdgeStyle;rounded=0;orthogonalLoop=1;jettySize=auto;html=1;entryX=0;entryY=0.5;entryDx=0;entryDy=0;" parent="1" source="rZ91b2XxjQ6Zvt-jZUCI-3" target="Nf32lw-0SpVpwIQLNDtx-8" edge="1">
          <mxGeometry relative="1" as="geometry" />
        </mxCell>
        <mxCell id="rZ91b2XxjQ6Zvt-jZUCI-3" value="ContentValidator&lt;br&gt;until Message" style="rounded=0;whiteSpace=wrap;html=1;" parent="1" vertex="1">
          <mxGeometry x="-200" y="290" width="120" height="60" as="geometry" />
        </mxCell>
        <mxCell id="rZ91b2XxjQ6Zvt-jZUCI-11" style="edgeStyle=orthogonalEdgeStyle;rounded=0;orthogonalLoop=1;jettySize=auto;html=1;exitX=0.5;exitY=1;exitDx=0;exitDy=0;" parent="1" edge="1">
          <mxGeometry relative="1" as="geometry">
            <mxPoint x="820" y="320" as="sourcePoint" />
            <mxPoint x="820" y="320" as="targetPoint" />
          </mxGeometry>
        </mxCell>
        <mxCell id="rZ91b2XxjQ6Zvt-jZUCI-34" style="edgeStyle=orthogonalEdgeStyle;rounded=0;orthogonalLoop=1;jettySize=auto;html=1;entryX=0;entryY=0.5;entryDx=0;entryDy=0;" parent="1" source="rZ91b2XxjQ6Zvt-jZUCI-14" target="rZ91b2XxjQ6Zvt-jZUCI-33" edge="1">
          <mxGeometry relative="1" as="geometry" />
        </mxCell>
        <mxCell id="rZ91b2XxjQ6Zvt-jZUCI-14" value="merger" style="ellipse;whiteSpace=wrap;html=1;fillColor=#dae8fc;strokeColor=#6c8ebf;" parent="1" vertex="1">
          <mxGeometry x="1120" y="280" width="120" height="80" as="geometry" />
        </mxCell>
        <mxCell id="rUetvIsY-SQTjb-ctNYU-2" style="edgeStyle=orthogonalEdgeStyle;rounded=0;orthogonalLoop=1;jettySize=auto;html=1;exitX=1;exitY=0.5;exitDx=0;exitDy=0;entryX=0;entryY=0.5;entryDx=0;entryDy=0;" parent="1" source="rZ91b2XxjQ6Zvt-jZUCI-18" target="rUetvIsY-SQTjb-ctNYU-1" edge="1">
          <mxGeometry relative="1" as="geometry" />
        </mxCell>
        <mxCell id="rZ91b2XxjQ6Zvt-jZUCI-18" value="SOURCE&lt;br&gt;(input)" style="ellipse;whiteSpace=wrap;html=1;fillColor=#dae8fc;strokeColor=#6c8ebf;" parent="1" vertex="1">
          <mxGeometry x="-520" y="520" width="120" height="80" as="geometry" />
        </mxCell>
        <mxCell id="rZ91b2XxjQ6Zvt-jZUCI-24" style="edgeStyle=orthogonalEdgeStyle;rounded=0;orthogonalLoop=1;jettySize=auto;html=1;fillColor=#e1d5e7;strokeColor=#9673a6;" parent="1" source="rZ91b2XxjQ6Zvt-jZUCI-21" edge="1">
          <mxGeometry relative="1" as="geometry">
            <mxPoint x="-360" y="320" as="targetPoint" />
          </mxGeometry>
        </mxCell>
        <mxCell id="rZ91b2XxjQ6Zvt-jZUCI-21" value="DB" style="shape=cylinder3;whiteSpace=wrap;html=1;boundedLbl=1;backgroundOutline=1;size=15;fillColor=#e1d5e7;strokeColor=#9673a6;" parent="1" vertex="1">
          <mxGeometry x="-490" y="280" width="60" height="80" as="geometry" />
        </mxCell>
        <mxCell id="rZ91b2XxjQ6Zvt-jZUCI-23" style="edgeStyle=orthogonalEdgeStyle;rounded=0;orthogonalLoop=1;jettySize=auto;html=1;fillColor=#e1d5e7;strokeColor=#9673a6;" parent="1" source="rZ91b2XxjQ6Zvt-jZUCI-22" target="rZ91b2XxjQ6Zvt-jZUCI-21" edge="1">
          <mxGeometry relative="1" as="geometry" />
        </mxCell>
        <mxCell id="rZ91b2XxjQ6Zvt-jZUCI-27" style="edgeStyle=orthogonalEdgeStyle;rounded=0;orthogonalLoop=1;jettySize=auto;html=1;entryX=0.5;entryY=1;entryDx=0;entryDy=0;fillColor=#e1d5e7;strokeColor=#9673a6;" parent="1" source="rZ91b2XxjQ6Zvt-jZUCI-22" edge="1">
          <mxGeometry relative="1" as="geometry">
            <mxPoint x="-300" y="190" as="targetPoint" />
          </mxGeometry>
        </mxCell>
        <mxCell id="rZ91b2XxjQ6Zvt-jZUCI-22" value="DbActor" style="rounded=0;whiteSpace=wrap;html=1;fillColor=#e1d5e7;strokeColor=#9673a6;" parent="1" vertex="1">
          <mxGeometry x="-360" y="290" width="120" height="60" as="geometry" />
        </mxCell>
        <mxCell id="rZ91b2XxjQ6Zvt-jZUCI-26" style="edgeStyle=orthogonalEdgeStyle;rounded=0;orthogonalLoop=1;jettySize=auto;html=1;entryX=0.5;entryY=0;entryDx=0;entryDy=0;fillColor=#e1d5e7;strokeColor=#9673a6;" parent="1" target="rZ91b2XxjQ6Zvt-jZUCI-22" edge="1">
          <mxGeometry relative="1" as="geometry">
            <mxPoint x="-300" y="190" as="sourcePoint" />
          </mxGeometry>
        </mxCell>
        <mxCell id="rZ91b2XxjQ6Zvt-jZUCI-31" value="Ask pattern" style="edgeLabel;html=1;align=center;verticalAlign=middle;resizable=0;points=[];" parent="rZ91b2XxjQ6Zvt-jZUCI-26" vertex="1" connectable="0">
          <mxGeometry x="0.02" y="-2" relative="1" as="geometry">
            <mxPoint as="offset" />
          </mxGeometry>
        </mxCell>
        <mxCell id="rUetvIsY-SQTjb-ctNYU-9" style="edgeStyle=orthogonalEdgeStyle;rounded=0;orthogonalLoop=1;jettySize=auto;html=1;entryX=0.5;entryY=0;entryDx=0;entryDy=0;" parent="1" source="rZ91b2XxjQ6Zvt-jZUCI-33" target="Nf32lw-0SpVpwIQLNDtx-1" edge="1">
          <mxGeometry relative="1" as="geometry" />
        </mxCell>
        <mxCell id="rZ91b2XxjQ6Zvt-jZUCI-33" value="AnswerGenerator" style="rounded=0;whiteSpace=wrap;html=1;" parent="1" vertex="1">
          <mxGeometry x="1280" y="290" width="120" height="60" as="geometry" />
        </mxCell>
        <mxCell id="rUetvIsY-SQTjb-ctNYU-7" style="edgeStyle=orthogonalEdgeStyle;rounded=0;orthogonalLoop=1;jettySize=auto;html=1;exitX=0.5;exitY=1;exitDx=0;exitDy=0;entryX=0.5;entryY=1;entryDx=0;entryDy=0;" parent="1" source="Nf32lw-0SpVpwIQLNDtx-1" target="rUetvIsY-SQTjb-ctNYU-1" edge="1">
          <mxGeometry relative="1" as="geometry">
            <mxPoint x="1500" y="680" as="targetPoint" />
            <Array as="points">
              <mxPoint x="1340" y="1140" />
              <mxPoint x="-300" y="1140" />
            </Array>
          </mxGeometry>
        </mxCell>
        <mxCell id="rUetvIsY-SQTjb-ctNYU-8" style="edgeStyle=orthogonalEdgeStyle;rounded=0;orthogonalLoop=1;jettySize=auto;html=1;entryX=0;entryY=0.5;entryDx=0;entryDy=0;" parent="1" source="Nf32lw-0SpVpwIQLNDtx-1" target="Nf32lw-0SpVpwIQLNDtx-3" edge="1">
          <mxGeometry relative="1" as="geometry" />
        </mxCell>
        <mxCell id="Nf32lw-0SpVpwIQLNDtx-1" value="Answerer" style="rounded=0;whiteSpace=wrap;html=1;" parent="1" vertex="1">
          <mxGeometry x="1280" y="410" width="120" height="60" as="geometry" />
        </mxCell>
        <mxCell id="Nf32lw-0SpVpwIQLNDtx-3" value="SINK" style="ellipse;whiteSpace=wrap;html=1;fillColor=#dae8fc;strokeColor=#6c8ebf;" parent="1" vertex="1">
          <mxGeometry x="1440" y="400" width="120" height="80" as="geometry" />
        </mxCell>
        <mxCell id="Nf32lw-0SpVpwIQLNDtx-10" style="edgeStyle=orthogonalEdgeStyle;rounded=0;orthogonalLoop=1;jettySize=auto;html=1;entryX=0;entryY=0.5;entryDx=0;entryDy=0;" parent="1" source="Nf32lw-0SpVpwIQLNDtx-8" target="rUetvIsY-SQTjb-ctNYU-10" edge="1">
          <mxGeometry relative="1" as="geometry">
            <mxPoint x="240" y="520" as="targetPoint" />
            <Array as="points">
              <mxPoint x="20" y="560" />
            </Array>
          </mxGeometry>
        </mxCell>
        <mxCell id="Nf32lw-0SpVpwIQLNDtx-17" value="Subscribe&lt;br&gt;Unsubscribe&lt;br&gt;Catchup" style="edgeLabel;html=1;align=center;verticalAlign=middle;resizable=0;points=[];" parent="Nf32lw-0SpVpwIQLNDtx-10" vertex="1" connectable="0">
          <mxGeometry x="0.4533" relative="1" as="geometry">
            <mxPoint x="-3" as="offset" />
          </mxGeometry>
        </mxCell>
        <mxCell id="UaBfZhHQ0B-UcQtUIlz--5" value="2" style="edgeLabel;html=1;align=center;verticalAlign=middle;resizable=0;points=[];" parent="Nf32lw-0SpVpwIQLNDtx-10" vertex="1" connectable="0">
          <mxGeometry x="0.2714" relative="1" as="geometry">
            <mxPoint x="-270" y="-180" as="offset" />
          </mxGeometry>
        </mxCell>
        <mxCell id="Nf32lw-0SpVpwIQLNDtx-15" style="edgeStyle=orthogonalEdgeStyle;rounded=0;orthogonalLoop=1;jettySize=auto;html=1;entryX=0;entryY=0.5;entryDx=0;entryDy=0;" parent="1" source="Nf32lw-0SpVpwIQLNDtx-8" target="Nf32lw-0SpVpwIQLNDtx-13" edge="1">
          <mxGeometry relative="1" as="geometry" />
        </mxCell>
        <mxCell id="Nf32lw-0SpVpwIQLNDtx-19" value="Publish&lt;br&gt;Broadcast" style="edgeLabel;html=1;align=center;verticalAlign=middle;resizable=0;points=[];" parent="Nf32lw-0SpVpwIQLNDtx-15" vertex="1" connectable="0">
          <mxGeometry x="0.2941" y="-1" relative="1" as="geometry">
            <mxPoint as="offset" />
          </mxGeometry>
        </mxCell>
        <mxCell id="UaBfZhHQ0B-UcQtUIlz--4" value="1" style="edgeLabel;html=1;align=center;verticalAlign=middle;resizable=0;points=[];" parent="Nf32lw-0SpVpwIQLNDtx-15" vertex="1" connectable="0">
          <mxGeometry x="-0.2118" y="-2" relative="1" as="geometry">
            <mxPoint x="-47" y="-2" as="offset" />
          </mxGeometry>
        </mxCell>
        <mxCell id="UaBfZhHQ0B-UcQtUIlz--1" style="edgeStyle=orthogonalEdgeStyle;rounded=0;orthogonalLoop=1;jettySize=auto;html=1;exitX=0.5;exitY=0;exitDx=0;exitDy=0;entryX=0.5;entryY=0;entryDx=0;entryDy=0;" parent="1" source="Nf32lw-0SpVpwIQLNDtx-8" target="rZ91b2XxjQ6Zvt-jZUCI-14" edge="1">
          <mxGeometry relative="1" as="geometry">
            <mxPoint x="1020" y="270" as="targetPoint" />
            <Array as="points">
              <mxPoint x="20" y="110" />
              <mxPoint x="1180" y="110" />
            </Array>
          </mxGeometry>
        </mxCell>
        <mxCell id="UaBfZhHQ0B-UcQtUIlz--2" value="PipelineError" style="edgeLabel;html=1;align=center;verticalAlign=middle;resizable=0;points=[];" parent="UaBfZhHQ0B-UcQtUIlz--1" vertex="1" connectable="0">
          <mxGeometry x="0.438" relative="1" as="geometry">
            <mxPoint x="-110" as="offset" />
          </mxGeometry>
        </mxCell>
        <mxCell id="UaBfZhHQ0B-UcQtUIlz--6" value="0" style="edgeLabel;html=1;align=center;verticalAlign=middle;resizable=0;points=[];" parent="UaBfZhHQ0B-UcQtUIlz--1" vertex="1" connectable="0">
          <mxGeometry x="-0.9524" y="-1" relative="1" as="geometry">
            <mxPoint x="-2" y="17" as="offset" />
          </mxGeometry>
        </mxCell>
        <mxCell id="Nf32lw-0SpVpwIQLNDtx-8" value="PARTITIONER&lt;br&gt;depending trait Params" style="ellipse;whiteSpace=wrap;html=1;fillColor=#dae8fc;strokeColor=#6c8ebf;" parent="1" vertex="1">
          <mxGeometry x="-40" y="280" width="120" height="80" as="geometry" />
        </mxCell>
        <mxCell id="Nf32lw-0SpVpwIQLNDtx-12" style="edgeStyle=orthogonalEdgeStyle;rounded=0;orthogonalLoop=1;jettySize=auto;html=1;entryX=0;entryY=0.5;entryDx=0;entryDy=0;" parent="1" source="Nf32lw-0SpVpwIQLNDtx-13" target="Nf32lw-0SpVpwIQLNDtx-14" edge="1">
          <mxGeometry relative="1" as="geometry" />
        </mxCell>
        <mxCell id="Nf32lw-0SpVpwIQLNDtx-13" value="Decoder (Parser)&lt;br&gt;from Message" style="rounded=0;whiteSpace=wrap;html=1;" parent="1" vertex="1">
          <mxGeometry x="240" y="290" width="120" height="60" as="geometry" />
        </mxCell>
        <mxCell id="9vvj3N_ZbqNBOyANyDOC-11" style="edgeStyle=orthogonalEdgeStyle;rounded=0;orthogonalLoop=1;jettySize=auto;html=1;" parent="1" source="Nf32lw-0SpVpwIQLNDtx-14" target="9vvj3N_ZbqNBOyANyDOC-9" edge="1">
          <mxGeometry relative="1" as="geometry" />
        </mxCell>
        <mxCell id="Nf32lw-0SpVpwIQLNDtx-14" value="ContentValidator&lt;br&gt;from Message" style="rounded=0;whiteSpace=wrap;html=1;" parent="1" vertex="1">
          <mxGeometry x="400" y="290" width="120" height="60" as="geometry" />
        </mxCell>
        <mxCell id="rUetvIsY-SQTjb-ctNYU-3" style="edgeStyle=orthogonalEdgeStyle;rounded=0;orthogonalLoop=1;jettySize=auto;html=1;exitX=1;exitY=0.5;exitDx=0;exitDy=0;entryX=0;entryY=0.5;entryDx=0;entryDy=0;" parent="1" source="rUetvIsY-SQTjb-ctNYU-1" target="rZ91b2XxjQ6Zvt-jZUCI-1" edge="1">
          <mxGeometry relative="1" as="geometry" />
        </mxCell>
        <mxCell id="rUetvIsY-SQTjb-ctNYU-4" style="edgeStyle=orthogonalEdgeStyle;rounded=0;orthogonalLoop=1;jettySize=auto;html=1;exitX=0;exitY=0.5;exitDx=0;exitDy=0;" parent="1" source="rUetvIsY-SQTjb-ctNYU-1" edge="1">
          <mxGeometry relative="1" as="geometry">
            <mxPoint x="-400" y="560" as="targetPoint" />
          </mxGeometry>
        </mxCell>
        <mxCell id="rUetvIsY-SQTjb-ctNYU-1" value="ClientActor&lt;br&gt;(represents the Source = Client)" style="rounded=0;whiteSpace=wrap;html=1;fillColor=#e1d5e7;strokeColor=#9673a6;" parent="1" vertex="1">
          <mxGeometry x="-360" y="530" width="120" height="60" as="geometry" />
        </mxCell>
        <mxCell id="rUetvIsY-SQTjb-ctNYU-16" style="edgeStyle=orthogonalEdgeStyle;rounded=0;orthogonalLoop=1;jettySize=auto;html=1;exitX=1;exitY=0.5;exitDx=0;exitDy=0;entryX=0;entryY=0.5;entryDx=0;entryDy=0;" parent="1" source="rUetvIsY-SQTjb-ctNYU-10" target="rUetvIsY-SQTjb-ctNYU-12" edge="1">
          <mxGeometry relative="1" as="geometry" />
        </mxCell>
        <mxCell id="rUetvIsY-SQTjb-ctNYU-17" style="edgeStyle=orthogonalEdgeStyle;rounded=0;orthogonalLoop=1;jettySize=auto;html=1;entryX=0;entryY=0.617;entryDx=0;entryDy=0;entryPerimeter=0;" parent="1" source="rUetvIsY-SQTjb-ctNYU-10" target="rUetvIsY-SQTjb-ctNYU-13" edge="1">
          <mxGeometry relative="1" as="geometry" />
        </mxCell>
        <mxCell id="rUetvIsY-SQTjb-ctNYU-26" style="edgeStyle=orthogonalEdgeStyle;rounded=0;orthogonalLoop=1;jettySize=auto;html=1;entryX=0.5;entryY=1;entryDx=0;entryDy=0;" parent="1" source="rUetvIsY-SQTjb-ctNYU-10" target="rUetvIsY-SQTjb-ctNYU-11" edge="1">
          <mxGeometry relative="1" as="geometry">
            <Array as="points">
              <mxPoint x="620" y="710" />
              <mxPoint x="1020" y="710" />
            </Array>
          </mxGeometry>
        </mxCell>
        <mxCell id="rUetvIsY-SQTjb-ctNYU-27" value="PipeilineError" style="edgeLabel;html=1;align=center;verticalAlign=middle;resizable=0;points=[];" parent="rUetvIsY-SQTjb-ctNYU-26" vertex="1" connectable="0">
          <mxGeometry x="-0.0032" y="1" relative="1" as="geometry">
            <mxPoint as="offset" />
          </mxGeometry>
        </mxCell>
        <mxCell id="rUetvIsY-SQTjb-ctNYU-28" value="0" style="edgeLabel;html=1;align=center;verticalAlign=middle;resizable=0;points=[];" parent="rUetvIsY-SQTjb-ctNYU-26" vertex="1" connectable="0">
          <mxGeometry x="-0.9452" relative="1" as="geometry">
            <mxPoint x="-1" as="offset" />
          </mxGeometry>
        </mxCell>
        <mxCell id="rUetvIsY-SQTjb-ctNYU-31" style="edgeStyle=orthogonalEdgeStyle;rounded=0;orthogonalLoop=1;jettySize=auto;html=1;" parent="1" source="rUetvIsY-SQTjb-ctNYU-10" target="rUetvIsY-SQTjb-ctNYU-30" edge="1">
          <mxGeometry relative="1" as="geometry" />
        </mxCell>
        <mxCell id="rUetvIsY-SQTjb-ctNYU-10" value="PARTITIONER&lt;br&gt;Sub+Unsub+Catch" style="ellipse;whiteSpace=wrap;html=1;fillColor=#dae8fc;strokeColor=#6c8ebf;" parent="1" vertex="1">
          <mxGeometry x="560" y="520" width="120" height="80" as="geometry" />
        </mxCell>
        <mxCell id="rUetvIsY-SQTjb-ctNYU-29" style="edgeStyle=orthogonalEdgeStyle;rounded=0;orthogonalLoop=1;jettySize=auto;html=1;entryX=0.5;entryY=1;entryDx=0;entryDy=0;" parent="1" source="rUetvIsY-SQTjb-ctNYU-11" target="rZ91b2XxjQ6Zvt-jZUCI-14" edge="1">
          <mxGeometry relative="1" as="geometry" />
        </mxCell>
        <mxCell id="rUetvIsY-SQTjb-ctNYU-11" value="handlerMerger" style="ellipse;whiteSpace=wrap;html=1;fillColor=#dae8fc;strokeColor=#6c8ebf;" parent="1" vertex="1">
          <mxGeometry x="960" y="520" width="120" height="80" as="geometry" />
        </mxCell>
        <mxCell id="rUetvIsY-SQTjb-ctNYU-21" style="edgeStyle=orthogonalEdgeStyle;rounded=0;orthogonalLoop=1;jettySize=auto;html=1;exitX=1;exitY=0.5;exitDx=0;exitDy=0;entryX=0;entryY=0.5;entryDx=0;entryDy=0;" parent="1" source="rUetvIsY-SQTjb-ctNYU-12" target="rUetvIsY-SQTjb-ctNYU-11" edge="1">
          <mxGeometry relative="1" as="geometry" />
        </mxCell>
        <mxCell id="rUetvIsY-SQTjb-ctNYU-12" value="SubscribeHandler" style="rounded=0;whiteSpace=wrap;html=1;" parent="1" vertex="1">
          <mxGeometry x="760" y="460" width="120" height="60" as="geometry" />
        </mxCell>
        <mxCell id="rUetvIsY-SQTjb-ctNYU-19" style="edgeStyle=orthogonalEdgeStyle;rounded=0;orthogonalLoop=1;jettySize=auto;html=1;exitX=1;exitY=0.5;exitDx=0;exitDy=0;entryX=0;entryY=0.5;entryDx=0;entryDy=0;" parent="1" source="rUetvIsY-SQTjb-ctNYU-13" target="rUetvIsY-SQTjb-ctNYU-11" edge="1">
          <mxGeometry relative="1" as="geometry" />
        </mxCell>
        <mxCell id="rUetvIsY-SQTjb-ctNYU-13" value="CatchupHandler" style="rounded=0;whiteSpace=wrap;html=1;" parent="1" vertex="1">
          <mxGeometry x="760" y="600" width="120" height="60" as="geometry" />
        </mxCell>
        <mxCell id="rUetvIsY-SQTjb-ctNYU-15" style="edgeStyle=orthogonalEdgeStyle;rounded=0;orthogonalLoop=1;jettySize=auto;html=1;exitX=0.5;exitY=1;exitDx=0;exitDy=0;" parent="1" edge="1">
          <mxGeometry relative="1" as="geometry">
            <mxPoint x="820" y="560" as="sourcePoint" />
            <mxPoint x="820" y="560" as="targetPoint" />
          </mxGeometry>
        </mxCell>
        <mxCell id="rUetvIsY-SQTjb-ctNYU-32" style="edgeStyle=orthogonalEdgeStyle;rounded=0;orthogonalLoop=1;jettySize=auto;html=1;entryX=0;entryY=0.5;entryDx=0;entryDy=0;" parent="1" source="rUetvIsY-SQTjb-ctNYU-30" target="rUetvIsY-SQTjb-ctNYU-11" edge="1">
          <mxGeometry relative="1" as="geometry" />
        </mxCell>
        <mxCell id="9vvj3N_ZbqNBOyANyDOC-10" style="edgeStyle=orthogonalEdgeStyle;rounded=0;orthogonalLoop=1;jettySize=auto;html=1;entryX=0;entryY=0.5;entryDx=0;entryDy=0;" parent="1" source="9vvj3N_ZbqNBOyANyDOC-9" target="rZ91b2XxjQ6Zvt-jZUCI-14" edge="1">
          <mxGeometry relative="1" as="geometry" />
        </mxCell>
        <mxCell id="TPidzyH_rHe5izB45-KL-10" value="" style="rounded=0;whiteSpace=wrap;html=1;strokeColor=#9673a6;fillColor=#e1d5e7;glass=0;shadow=0;sketch=0;dashed=1;strokeWidth=2;" vertex="1" parent="1">
          <mxGeometry x="140" y="780" width="960" height="290" as="geometry" />
        </mxCell>
        <mxCell id="TPidzyH_rHe5izB45-KL-11" value="PARTITIONER&lt;br&gt;HB + GetMessages" style="ellipse;whiteSpace=wrap;html=1;fillColor=#dae8fc;strokeColor=#6c8ebf;" vertex="1" parent="1">
          <mxGeometry x="550" y="885" width="120" height="80" as="geometry" />
        </mxCell>
        <mxCell id="TPidzyH_rHe5izB45-KL-12" value="Heartbeat&lt;br&gt;GetMessagesById" style="edgeLabel;html=1;align=center;verticalAlign=middle;resizable=0;points=[];" vertex="1" connectable="0" parent="1">
          <mxGeometry x="360" y="939.9999999999998" as="geometry">
            <mxPoint x="-13" y="-21" as="offset" />
          </mxGeometry>
        </mxCell>
        <mxCell id="TPidzyH_rHe5izB45-KL-13" value="HeartbeatHandler" style="rounded=0;whiteSpace=wrap;html=1;" vertex="1" parent="1">
          <mxGeometry x="760" y="825" width="120" height="60" as="geometry" />
        </mxCell>
        <mxCell id="TPidzyH_rHe5izB45-KL-15" value="&lt;font color=&quot;#4c0099&quot;&gt;&lt;font style=&quot;font-size: 15px&quot;&gt;ParamsWithMapHandler&lt;/font&gt;&lt;font style=&quot;font-size: 15px&quot;&gt; (1 input, 1 output)&lt;/font&gt;&lt;/font&gt;" style="text;html=1;strokeColor=none;fillColor=none;align=center;verticalAlign=middle;whiteSpace=wrap;rounded=0;shadow=0;glass=0;dashed=1;sketch=0;" vertex="1" parent="1">
          <mxGeometry x="140" y="780" width="340" height="49" as="geometry" />
        </mxCell>
        <mxCell id="TPidzyH_rHe5izB45-KL-17" value="GetMessagesById&lt;br&gt;Handler" style="rounded=0;whiteSpace=wrap;html=1;" vertex="1" parent="1">
          <mxGeometry x="760" y="960" width="120" height="60" as="geometry" />
        </mxCell>
      </root>
    </mxGraphModel>
  </diagram>
  <diagram id="fkW3wbmBjO-Y3YakjoWd" name="be2-s">
    <mxGraphModel dx="2074" dy="672" grid="1" gridSize="10" guides="1" tooltips="1" connect="1" arrows="1" fold="1" page="1" pageScale="1" pageWidth="1169" pageHeight="827" math="0" shadow="0">
      <root>
        <mxCell id="vNYUUVMX6C41dm5Dhd-K-0" />
        <mxCell id="vNYUUVMX6C41dm5Dhd-K-1" parent="vNYUUVMX6C41dm5Dhd-K-0" />
        <mxCell id="dGtZM3y6No2JxKleKozX-2" style="edgeStyle=orthogonalEdgeStyle;rounded=0;orthogonalLoop=1;jettySize=auto;html=1;exitX=0.5;exitY=1;exitDx=0;exitDy=0;entryX=0.5;entryY=0;entryDx=0;entryDy=0;" parent="vNYUUVMX6C41dm5Dhd-K-1" source="vNYUUVMX6C41dm5Dhd-K-29" target="vNYUUVMX6C41dm5Dhd-K-61" edge="1">
          <mxGeometry relative="1" as="geometry" />
        </mxCell>
        <mxCell id="vNYUUVMX6C41dm5Dhd-K-29" value="SOURCE&lt;br&gt;(input)" style="ellipse;whiteSpace=wrap;html=1;fillColor=#dae8fc;strokeColor=#6c8ebf;" parent="vNYUUVMX6C41dm5Dhd-K-1" vertex="1">
          <mxGeometry x="-240" y="160" width="120" height="80" as="geometry" />
        </mxCell>
        <mxCell id="vNYUUVMX6C41dm5Dhd-K-30" style="edgeStyle=orthogonalEdgeStyle;rounded=0;orthogonalLoop=1;jettySize=auto;html=1;fillColor=#e1d5e7;strokeColor=#9673a6;" parent="vNYUUVMX6C41dm5Dhd-K-1" source="vNYUUVMX6C41dm5Dhd-K-31" edge="1">
          <mxGeometry relative="1" as="geometry">
            <mxPoint x="250" y="150" as="targetPoint" />
          </mxGeometry>
        </mxCell>
        <mxCell id="vNYUUVMX6C41dm5Dhd-K-31" value="DB" style="shape=cylinder3;whiteSpace=wrap;html=1;boundedLbl=1;backgroundOutline=1;size=15;fillColor=#e1d5e7;strokeColor=#9673a6;" parent="vNYUUVMX6C41dm5Dhd-K-1" vertex="1">
          <mxGeometry x="120" y="110" width="60" height="80" as="geometry" />
        </mxCell>
        <mxCell id="vNYUUVMX6C41dm5Dhd-K-32" style="edgeStyle=orthogonalEdgeStyle;rounded=0;orthogonalLoop=1;jettySize=auto;html=1;fillColor=#e1d5e7;strokeColor=#9673a6;" parent="vNYUUVMX6C41dm5Dhd-K-1" target="vNYUUVMX6C41dm5Dhd-K-31" edge="1">
          <mxGeometry relative="1" as="geometry">
            <mxPoint x="250" y="150" as="sourcePoint" />
          </mxGeometry>
        </mxCell>
        <mxCell id="vNYUUVMX6C41dm5Dhd-K-88" style="edgeStyle=orthogonalEdgeStyle;rounded=0;orthogonalLoop=1;jettySize=auto;html=1;exitX=1;exitY=0.5;exitDx=0;exitDy=0;entryX=0;entryY=0.5;entryDx=0;entryDy=0;" parent="vNYUUVMX6C41dm5Dhd-K-1" source="vNYUUVMX6C41dm5Dhd-K-38" target="vNYUUVMX6C41dm5Dhd-K-42" edge="1">
          <mxGeometry relative="1" as="geometry" />
        </mxCell>
        <mxCell id="dGtZM3y6No2JxKleKozX-0" style="edgeStyle=orthogonalEdgeStyle;rounded=0;orthogonalLoop=1;jettySize=auto;html=1;exitX=1;exitY=0.5;exitDx=0;exitDy=0;entryX=0.5;entryY=1;entryDx=0;entryDy=0;" parent="vNYUUVMX6C41dm5Dhd-K-1" source="vNYUUVMX6C41dm5Dhd-K-38" target="vNYUUVMX6C41dm5Dhd-K-61" edge="1">
          <mxGeometry relative="1" as="geometry">
            <mxPoint x="760" y="520" as="targetPoint" />
            <Array as="points">
              <mxPoint x="460" y="320" />
              <mxPoint x="460" y="520" />
              <mxPoint x="-180" y="520" />
            </Array>
          </mxGeometry>
        </mxCell>
        <mxCell id="vNYUUVMX6C41dm5Dhd-K-38" value="AnswerGenerator" style="rounded=0;whiteSpace=wrap;html=1;" parent="vNYUUVMX6C41dm5Dhd-K-1" vertex="1">
          <mxGeometry x="320" y="290" width="120" height="60" as="geometry" />
        </mxCell>
        <mxCell id="vNYUUVMX6C41dm5Dhd-K-42" value="SINK" style="ellipse;whiteSpace=wrap;html=1;fillColor=#dae8fc;strokeColor=#6c8ebf;" parent="vNYUUVMX6C41dm5Dhd-K-1" vertex="1">
          <mxGeometry x="480" y="280" width="120" height="80" as="geometry" />
        </mxCell>
        <mxCell id="vNYUUVMX6C41dm5Dhd-K-49" style="edgeStyle=orthogonalEdgeStyle;rounded=0;orthogonalLoop=1;jettySize=auto;html=1;exitX=0.5;exitY=0;exitDx=0;exitDy=0;entryX=0;entryY=0.5;entryDx=0;entryDy=0;" parent="vNYUUVMX6C41dm5Dhd-K-1" source="vNYUUVMX6C41dm5Dhd-K-52" edge="1">
          <mxGeometry relative="1" as="geometry">
            <mxPoint x="320" y="320" as="targetPoint" />
            <Array as="points">
              <mxPoint x="-20" y="240" />
              <mxPoint x="280" y="240" />
              <mxPoint x="280" y="320" />
            </Array>
          </mxGeometry>
        </mxCell>
        <mxCell id="vNYUUVMX6C41dm5Dhd-K-85" value="Pipeline Error" style="edgeLabel;html=1;align=center;verticalAlign=middle;resizable=0;points=[];" parent="vNYUUVMX6C41dm5Dhd-K-49" vertex="1" connectable="0">
          <mxGeometry x="0.056" y="-1" relative="1" as="geometry">
            <mxPoint x="-23" y="-1" as="offset" />
          </mxGeometry>
        </mxCell>
        <mxCell id="vNYUUVMX6C41dm5Dhd-K-79" style="edgeStyle=orthogonalEdgeStyle;rounded=0;orthogonalLoop=1;jettySize=auto;html=1;exitX=0.5;exitY=1;exitDx=0;exitDy=0;entryX=0;entryY=0.5;entryDx=0;entryDy=0;" parent="vNYUUVMX6C41dm5Dhd-K-1" source="vNYUUVMX6C41dm5Dhd-K-52" target="vNYUUVMX6C41dm5Dhd-K-78" edge="1">
          <mxGeometry relative="1" as="geometry" />
        </mxCell>
        <mxCell id="vNYUUVMX6C41dm5Dhd-K-80" style="edgeStyle=orthogonalEdgeStyle;rounded=0;orthogonalLoop=1;jettySize=auto;html=1;exitX=1;exitY=0.5;exitDx=0;exitDy=0;entryX=0;entryY=0.5;entryDx=0;entryDy=0;" parent="vNYUUVMX6C41dm5Dhd-K-1" source="vNYUUVMX6C41dm5Dhd-K-52" target="vNYUUVMX6C41dm5Dhd-K-77" edge="1">
          <mxGeometry relative="1" as="geometry" />
        </mxCell>
        <mxCell id="vNYUUVMX6C41dm5Dhd-K-52" value="PARTITIONER&lt;br&gt;depending trait Params" style="ellipse;whiteSpace=wrap;html=1;fillColor=#dae8fc;strokeColor=#6c8ebf;" parent="vNYUUVMX6C41dm5Dhd-K-1" vertex="1">
          <mxGeometry x="-80" y="280" width="120" height="80" as="geometry" />
        </mxCell>
        <mxCell id="vNYUUVMX6C41dm5Dhd-K-86" style="edgeStyle=orthogonalEdgeStyle;rounded=0;orthogonalLoop=1;jettySize=auto;html=1;exitX=1;exitY=0.5;exitDx=0;exitDy=0;entryX=0;entryY=0.5;entryDx=0;entryDy=0;" parent="vNYUUVMX6C41dm5Dhd-K-1" source="vNYUUVMX6C41dm5Dhd-K-61" target="vNYUUVMX6C41dm5Dhd-K-52" edge="1">
          <mxGeometry relative="1" as="geometry" />
        </mxCell>
        <mxCell id="dGtZM3y6No2JxKleKozX-3" style="edgeStyle=orthogonalEdgeStyle;rounded=0;orthogonalLoop=1;jettySize=auto;html=1;exitX=0.5;exitY=0;exitDx=0;exitDy=0;" parent="vNYUUVMX6C41dm5Dhd-K-1" source="vNYUUVMX6C41dm5Dhd-K-61" edge="1">
          <mxGeometry relative="1" as="geometry">
            <mxPoint x="-180" y="240" as="targetPoint" />
          </mxGeometry>
        </mxCell>
        <mxCell id="vNYUUVMX6C41dm5Dhd-K-61" value="ClientActor&lt;br&gt;(represents the Source = Client)" style="rounded=0;whiteSpace=wrap;html=1;fillColor=#e1d5e7;strokeColor=#9673a6;" parent="vNYUUVMX6C41dm5Dhd-K-1" vertex="1">
          <mxGeometry x="-240" y="290" width="120" height="60" as="geometry" />
        </mxCell>
        <mxCell id="vNYUUVMX6C41dm5Dhd-K-81" style="edgeStyle=orthogonalEdgeStyle;rounded=0;orthogonalLoop=1;jettySize=auto;html=1;exitX=1;exitY=0.5;exitDx=0;exitDy=0;entryX=0;entryY=0.5;entryDx=0;entryDy=0;" parent="vNYUUVMX6C41dm5Dhd-K-1" source="vNYUUVMX6C41dm5Dhd-K-77" edge="1">
          <mxGeometry relative="1" as="geometry">
            <mxPoint x="320" y="320" as="targetPoint" />
          </mxGeometry>
        </mxCell>
        <mxCell id="vNYUUVMX6C41dm5Dhd-K-77" value="Handler for messages with &quot;params&quot;" style="rounded=0;whiteSpace=wrap;html=1;fillColor=#d5e8d4;strokeColor=#82b366;dashed=1;strokeWidth=2;" parent="vNYUUVMX6C41dm5Dhd-K-1" vertex="1">
          <mxGeometry x="80" y="280" width="160" height="80" as="geometry" />
        </mxCell>
        <mxCell id="vNYUUVMX6C41dm5Dhd-K-83" style="edgeStyle=orthogonalEdgeStyle;rounded=0;orthogonalLoop=1;jettySize=auto;html=1;exitX=1;exitY=0.5;exitDx=0;exitDy=0;entryX=0;entryY=0.5;entryDx=0;entryDy=0;" parent="vNYUUVMX6C41dm5Dhd-K-1" source="vNYUUVMX6C41dm5Dhd-K-78" edge="1">
          <mxGeometry relative="1" as="geometry">
            <mxPoint x="320" y="320" as="targetPoint" />
            <Array as="points">
              <mxPoint x="280" y="440" />
              <mxPoint x="280" y="320" />
            </Array>
          </mxGeometry>
        </mxCell>
        <mxCell id="vNYUUVMX6C41dm5Dhd-K-78" value="Handler for messages without &quot;params&quot;" style="rounded=0;whiteSpace=wrap;html=1;fillColor=#ffe6cc;strokeColor=#d79b00;strokeWidth=2;dashed=1;" parent="vNYUUVMX6C41dm5Dhd-K-1" vertex="1">
          <mxGeometry x="80" y="400" width="160" height="80" as="geometry" />
        </mxCell>
      </root>
    </mxGraphModel>
  </diagram>
  <diagram id="t9JDwi25D6GyrpSdCdU4" name="be2-simplified">
    <mxGraphModel dx="2074" dy="1499" grid="1" gridSize="10" guides="1" tooltips="1" connect="1" arrows="1" fold="1" page="1" pageScale="1" pageWidth="1169" pageHeight="827" math="0" shadow="0">
      <root>
        <mxCell id="Ef0WP4sdWJJAroIBTv4k-0" />
        <mxCell id="Ef0WP4sdWJJAroIBTv4k-1" parent="Ef0WP4sdWJJAroIBTv4k-0" />
        <mxCell id="m37VM0mgtICoDva8d0le-0" style="edgeStyle=orthogonalEdgeStyle;rounded=0;orthogonalLoop=1;jettySize=auto;html=1;exitX=0;exitY=0.5;exitDx=0;exitDy=0;entryX=1;entryY=0.5;entryDx=0;entryDy=0;" parent="Ef0WP4sdWJJAroIBTv4k-1" source="m37VM0mgtICoDva8d0le-4" target="m37VM0mgtICoDva8d0le-8" edge="1">
          <mxGeometry relative="1" as="geometry" />
        </mxCell>
        <mxCell id="m37VM0mgtICoDva8d0le-1" style="edgeStyle=orthogonalEdgeStyle;rounded=0;orthogonalLoop=1;jettySize=auto;html=1;exitX=0;exitY=0.5;exitDx=0;exitDy=0;entryX=1;entryY=0.5;entryDx=0;entryDy=0;" parent="Ef0WP4sdWJJAroIBTv4k-1" source="m37VM0mgtICoDva8d0le-4" target="m37VM0mgtICoDva8d0le-10" edge="1">
          <mxGeometry relative="1" as="geometry" />
        </mxCell>
        <mxCell id="m37VM0mgtICoDva8d0le-2" style="edgeStyle=orthogonalEdgeStyle;rounded=0;orthogonalLoop=1;jettySize=auto;html=1;exitX=0;exitY=0.5;exitDx=0;exitDy=0;entryX=1;entryY=0.5;entryDx=0;entryDy=0;" parent="Ef0WP4sdWJJAroIBTv4k-1" source="m37VM0mgtICoDva8d0le-4" target="m37VM0mgtICoDva8d0le-6" edge="1">
          <mxGeometry relative="1" as="geometry" />
        </mxCell>
        <mxCell id="m37VM0mgtICoDva8d0le-3" style="edgeStyle=orthogonalEdgeStyle;rounded=0;orthogonalLoop=1;jettySize=auto;html=1;exitX=1;exitY=0.5;exitDx=0;exitDy=0;entryX=0;entryY=0.5;entryDx=0;entryDy=0;entryPerimeter=0;" parent="Ef0WP4sdWJJAroIBTv4k-1" source="m37VM0mgtICoDva8d0le-4" target="m37VM0mgtICoDva8d0le-12" edge="1">
          <mxGeometry relative="1" as="geometry" />
        </mxCell>
        <mxCell id="m37VM0mgtICoDva8d0le-4" value="SERVER" style="ellipse;whiteSpace=wrap;html=1;" parent="Ef0WP4sdWJJAroIBTv4k-1" vertex="1">
          <mxGeometry x="-150" y="-370" width="120" height="80" as="geometry" />
        </mxCell>
        <mxCell id="m37VM0mgtICoDva8d0le-5" style="edgeStyle=orthogonalEdgeStyle;rounded=0;orthogonalLoop=1;jettySize=auto;html=1;exitX=1;exitY=0.5;exitDx=0;exitDy=0;entryX=0;entryY=0.5;entryDx=0;entryDy=0;" parent="Ef0WP4sdWJJAroIBTv4k-1" source="m37VM0mgtICoDva8d0le-6" target="m37VM0mgtICoDva8d0le-4" edge="1">
          <mxGeometry relative="1" as="geometry" />
        </mxCell>
        <mxCell id="m37VM0mgtICoDva8d0le-6" value="Client" style="ellipse;whiteSpace=wrap;html=1;" parent="Ef0WP4sdWJJAroIBTv4k-1" vertex="1">
          <mxGeometry x="-450" y="-490" width="120" height="80" as="geometry" />
        </mxCell>
        <mxCell id="m37VM0mgtICoDva8d0le-7" style="edgeStyle=orthogonalEdgeStyle;rounded=0;orthogonalLoop=1;jettySize=auto;html=1;entryX=0;entryY=0.5;entryDx=0;entryDy=0;" parent="Ef0WP4sdWJJAroIBTv4k-1" source="m37VM0mgtICoDva8d0le-8" target="m37VM0mgtICoDva8d0le-4" edge="1">
          <mxGeometry relative="1" as="geometry" />
        </mxCell>
        <mxCell id="m37VM0mgtICoDva8d0le-8" value="Client" style="ellipse;whiteSpace=wrap;html=1;" parent="Ef0WP4sdWJJAroIBTv4k-1" vertex="1">
          <mxGeometry x="-450" y="-370" width="120" height="80" as="geometry" />
        </mxCell>
        <mxCell id="m37VM0mgtICoDva8d0le-9" style="edgeStyle=orthogonalEdgeStyle;rounded=0;orthogonalLoop=1;jettySize=auto;html=1;entryX=0;entryY=0.5;entryDx=0;entryDy=0;" parent="Ef0WP4sdWJJAroIBTv4k-1" source="m37VM0mgtICoDva8d0le-10" target="m37VM0mgtICoDva8d0le-4" edge="1">
          <mxGeometry relative="1" as="geometry" />
        </mxCell>
        <mxCell id="m37VM0mgtICoDva8d0le-10" value="Client" style="ellipse;whiteSpace=wrap;html=1;" parent="Ef0WP4sdWJJAroIBTv4k-1" vertex="1">
          <mxGeometry x="-450" y="-250" width="120" height="80" as="geometry" />
        </mxCell>
        <mxCell id="m37VM0mgtICoDva8d0le-11" style="edgeStyle=orthogonalEdgeStyle;rounded=0;orthogonalLoop=1;jettySize=auto;html=1;exitX=0;exitY=0.5;exitDx=0;exitDy=0;exitPerimeter=0;" parent="Ef0WP4sdWJJAroIBTv4k-1" source="m37VM0mgtICoDva8d0le-12" edge="1">
          <mxGeometry relative="1" as="geometry">
            <mxPoint x="-30" y="-329.85714285714266" as="targetPoint" />
          </mxGeometry>
        </mxCell>
        <mxCell id="m37VM0mgtICoDva8d0le-12" value="DB" style="shape=cylinder3;whiteSpace=wrap;html=1;boundedLbl=1;backgroundOutline=1;size=15;fillColor=#e1d5e7;strokeColor=#9673a6;" parent="Ef0WP4sdWJJAroIBTv4k-1" vertex="1">
          <mxGeometry x="70" y="-370" width="60" height="80" as="geometry" />
        </mxCell>
      </root>
    </mxGraphModel>
  </diagram>
  <diagram id="EIcK3qJ34sJbm660W09z" name="be2-pipeline-s">
    <mxGraphModel dx="2074" dy="672" grid="1" gridSize="10" guides="1" tooltips="1" connect="1" arrows="1" fold="1" page="1" pageScale="1" pageWidth="1169" pageHeight="827" math="0" shadow="0">
      <root>
        <mxCell id="kM3VtPrZi_OBbqF4rAsv-0" />
        <mxCell id="kM3VtPrZi_OBbqF4rAsv-1" parent="kM3VtPrZi_OBbqF4rAsv-0" />
        <mxCell id="03Ofjcj5-keQxr63mmt3-1" style="edgeStyle=orthogonalEdgeStyle;rounded=0;orthogonalLoop=1;jettySize=auto;html=1;entryX=0.5;entryY=1;entryDx=0;entryDy=0;" edge="1" parent="kM3VtPrZi_OBbqF4rAsv-1" source="pOdhkxr7yMfGTOWCAe6R-1" target="pOdhkxr7yMfGTOWCAe6R-24">
          <mxGeometry relative="1" as="geometry" />
        </mxCell>
        <mxCell id="pOdhkxr7yMfGTOWCAe6R-1" value="SOURCE&lt;br&gt;(input)" style="ellipse;whiteSpace=wrap;html=1;fillColor=#dae8fc;strokeColor=#6c8ebf;" vertex="1" parent="kM3VtPrZi_OBbqF4rAsv-1">
          <mxGeometry x="-320" y="400" width="120" height="80" as="geometry" />
        </mxCell>
        <mxCell id="pOdhkxr7yMfGTOWCAe6R-3" value="DB" style="shape=cylinder3;whiteSpace=wrap;html=1;boundedLbl=1;backgroundOutline=1;size=15;fillColor=#e1d5e7;strokeColor=#9673a6;" vertex="1" parent="kM3VtPrZi_OBbqF4rAsv-1">
          <mxGeometry y="400" width="120" height="100" as="geometry" />
        </mxCell>
        <mxCell id="03Ofjcj5-keQxr63mmt3-8" style="edgeStyle=orthogonalEdgeStyle;rounded=0;orthogonalLoop=1;jettySize=auto;html=1;exitX=0.5;exitY=1;exitDx=0;exitDy=0;entryX=0.5;entryY=0;entryDx=0;entryDy=0;" edge="1" parent="kM3VtPrZi_OBbqF4rAsv-1" source="pOdhkxr7yMfGTOWCAe6R-7" target="03Ofjcj5-keQxr63mmt3-7">
          <mxGeometry relative="1" as="geometry" />
        </mxCell>
        <mxCell id="pOdhkxr7yMfGTOWCAe6R-7" value="AnswerGenerator" style="rounded=0;whiteSpace=wrap;html=1;" vertex="1" parent="kM3VtPrZi_OBbqF4rAsv-1">
          <mxGeometry x="320" y="290" width="120" height="60" as="geometry" />
        </mxCell>
        <mxCell id="03Ofjcj5-keQxr63mmt3-5" style="edgeStyle=orthogonalEdgeStyle;rounded=0;orthogonalLoop=1;jettySize=auto;html=1;exitX=1;exitY=0.5;exitDx=0;exitDy=0;entryX=0;entryY=0.5;entryDx=0;entryDy=0;" edge="1" parent="kM3VtPrZi_OBbqF4rAsv-1" source="pOdhkxr7yMfGTOWCAe6R-18" target="pOdhkxr7yMfGTOWCAe6R-7">
          <mxGeometry relative="1" as="geometry" />
        </mxCell>
        <mxCell id="pOdhkxr7yMfGTOWCAe6R-18" value="Handlers" style="rounded=0;whiteSpace=wrap;html=1;fillColor=#f8cecc;strokeColor=#b85450;dashed=1;strokeWidth=2;" vertex="1" parent="kM3VtPrZi_OBbqF4rAsv-1">
          <mxGeometry x="160" y="290" width="120" height="60" as="geometry" />
        </mxCell>
        <mxCell id="03Ofjcj5-keQxr63mmt3-3" style="edgeStyle=orthogonalEdgeStyle;rounded=0;orthogonalLoop=1;jettySize=auto;html=1;exitX=1;exitY=0.5;exitDx=0;exitDy=0;entryX=0;entryY=0.5;entryDx=0;entryDy=0;" edge="1" parent="kM3VtPrZi_OBbqF4rAsv-1" source="pOdhkxr7yMfGTOWCAe6R-22" target="03Ofjcj5-keQxr63mmt3-0">
          <mxGeometry relative="1" as="geometry" />
        </mxCell>
        <mxCell id="pOdhkxr7yMfGTOWCAe6R-22" value="Decoder" style="rounded=0;whiteSpace=wrap;html=1;" vertex="1" parent="kM3VtPrZi_OBbqF4rAsv-1">
          <mxGeometry x="-160" y="290" width="120" height="60" as="geometry" />
        </mxCell>
        <mxCell id="03Ofjcj5-keQxr63mmt3-2" style="edgeStyle=orthogonalEdgeStyle;rounded=0;orthogonalLoop=1;jettySize=auto;html=1;exitX=1;exitY=0.5;exitDx=0;exitDy=0;entryX=0;entryY=0.5;entryDx=0;entryDy=0;" edge="1" parent="kM3VtPrZi_OBbqF4rAsv-1" source="pOdhkxr7yMfGTOWCAe6R-24" target="pOdhkxr7yMfGTOWCAe6R-22">
          <mxGeometry relative="1" as="geometry" />
        </mxCell>
        <mxCell id="pOdhkxr7yMfGTOWCAe6R-24" value="SchemaVerifier" style="rounded=0;whiteSpace=wrap;html=1;" vertex="1" parent="kM3VtPrZi_OBbqF4rAsv-1">
          <mxGeometry x="-320" y="290" width="120" height="60" as="geometry" />
        </mxCell>
        <mxCell id="03Ofjcj5-keQxr63mmt3-4" style="edgeStyle=orthogonalEdgeStyle;rounded=0;orthogonalLoop=1;jettySize=auto;html=1;exitX=1;exitY=0.5;exitDx=0;exitDy=0;entryX=0;entryY=0.5;entryDx=0;entryDy=0;" edge="1" parent="kM3VtPrZi_OBbqF4rAsv-1" source="03Ofjcj5-keQxr63mmt3-0" target="pOdhkxr7yMfGTOWCAe6R-18">
          <mxGeometry relative="1" as="geometry" />
        </mxCell>
        <mxCell id="03Ofjcj5-keQxr63mmt3-0" value="Validators" style="rounded=0;whiteSpace=wrap;html=1;fillColor=#f8cecc;strokeColor=#b85450;dashed=1;strokeWidth=2;" vertex="1" parent="kM3VtPrZi_OBbqF4rAsv-1">
          <mxGeometry y="290" width="120" height="60" as="geometry" />
        </mxCell>
        <mxCell id="03Ofjcj5-keQxr63mmt3-7" value="SINK&lt;br&gt;(output)" style="ellipse;whiteSpace=wrap;html=1;fillColor=#dae8fc;strokeColor=#6c8ebf;" vertex="1" parent="kM3VtPrZi_OBbqF4rAsv-1">
          <mxGeometry x="320" y="400" width="120" height="80" as="geometry" />
        </mxCell>
        <mxCell id="03Ofjcj5-keQxr63mmt3-10" value="" style="html=1;shadow=0;dashed=0;align=center;verticalAlign=middle;shape=mxgraph.arrows2.twoWayArrow;dy=0.53;dx=18;strokeColor=#6c8ebf;fillColor=#dae8fc;rotation=90;" vertex="1" parent="kM3VtPrZi_OBbqF4rAsv-1">
          <mxGeometry x="20" y="365.89" width="80" height="20" as="geometry" />
        </mxCell>
        <mxCell id="03Ofjcj5-keQxr63mmt3-11" value="" style="html=1;shadow=0;dashed=0;align=center;verticalAlign=middle;shape=mxgraph.arrows2.twoWayArrow;dy=0.53;dx=18;strokeColor=#6c8ebf;fillColor=#dae8fc;rotation=45;" vertex="1" parent="kM3VtPrZi_OBbqF4rAsv-1">
          <mxGeometry x="-70" y="367.24" width="113" height="20" as="geometry" />
        </mxCell>
        <mxCell id="03Ofjcj5-keQxr63mmt3-12" value="" style="html=1;shadow=0;dashed=0;align=center;verticalAlign=middle;shape=mxgraph.arrows2.twoWayArrow;dy=0.53;dx=18;strokeColor=#6c8ebf;fillColor=#dae8fc;rotation=-45;" vertex="1" parent="kM3VtPrZi_OBbqF4rAsv-1">
          <mxGeometry x="82.61" y="365.89" width="109" height="20" as="geometry" />
        </mxCell>
      </root>
    </mxGraphModel>
  </diagram>
  <diagram name="be2-pipeline-s-annot" id="Xi-_TewHKwOWHtVfAmgs">
    <mxGraphModel dx="2074" dy="672" grid="1" gridSize="10" guides="1" tooltips="1" connect="1" arrows="1" fold="1" page="1" pageScale="1" pageWidth="1169" pageHeight="827" math="0" shadow="0">
      <root>
        <mxCell id="DXdY7fNJdsDGyy_GN3W3-0" />
        <mxCell id="DXdY7fNJdsDGyy_GN3W3-1" parent="DXdY7fNJdsDGyy_GN3W3-0" />
        <mxCell id="DXdY7fNJdsDGyy_GN3W3-2" style="edgeStyle=orthogonalEdgeStyle;rounded=0;orthogonalLoop=1;jettySize=auto;html=1;entryX=0.5;entryY=1;entryDx=0;entryDy=0;" edge="1" parent="DXdY7fNJdsDGyy_GN3W3-1" source="DXdY7fNJdsDGyy_GN3W3-3" target="DXdY7fNJdsDGyy_GN3W3-12">
          <mxGeometry relative="1" as="geometry" />
        </mxCell>
        <mxCell id="DXdY7fNJdsDGyy_GN3W3-3" value="SOURCE&lt;br&gt;(input)" style="ellipse;whiteSpace=wrap;html=1;fillColor=#dae8fc;strokeColor=#6c8ebf;" vertex="1" parent="DXdY7fNJdsDGyy_GN3W3-1">
          <mxGeometry x="-320" y="400" width="120" height="80" as="geometry" />
        </mxCell>
        <mxCell id="DXdY7fNJdsDGyy_GN3W3-4" value="DB" style="shape=cylinder3;whiteSpace=wrap;html=1;boundedLbl=1;backgroundOutline=1;size=15;fillColor=#e1d5e7;strokeColor=#9673a6;" vertex="1" parent="DXdY7fNJdsDGyy_GN3W3-1">
          <mxGeometry y="400" width="120" height="100" as="geometry" />
        </mxCell>
        <mxCell id="DXdY7fNJdsDGyy_GN3W3-5" style="edgeStyle=orthogonalEdgeStyle;rounded=0;orthogonalLoop=1;jettySize=auto;html=1;exitX=0.5;exitY=1;exitDx=0;exitDy=0;entryX=0.5;entryY=0;entryDx=0;entryDy=0;" edge="1" parent="DXdY7fNJdsDGyy_GN3W3-1" source="DXdY7fNJdsDGyy_GN3W3-6" target="DXdY7fNJdsDGyy_GN3W3-15">
          <mxGeometry relative="1" as="geometry" />
        </mxCell>
        <mxCell id="DXdY7fNJdsDGyy_GN3W3-6" value="AnswerGenerator" style="rounded=0;whiteSpace=wrap;html=1;" vertex="1" parent="DXdY7fNJdsDGyy_GN3W3-1">
          <mxGeometry x="320" y="290" width="120" height="60" as="geometry" />
        </mxCell>
        <mxCell id="DXdY7fNJdsDGyy_GN3W3-7" style="edgeStyle=orthogonalEdgeStyle;rounded=0;orthogonalLoop=1;jettySize=auto;html=1;exitX=1;exitY=0.5;exitDx=0;exitDy=0;entryX=0;entryY=0.5;entryDx=0;entryDy=0;" edge="1" parent="DXdY7fNJdsDGyy_GN3W3-1" source="DXdY7fNJdsDGyy_GN3W3-8" target="DXdY7fNJdsDGyy_GN3W3-6">
          <mxGeometry relative="1" as="geometry" />
        </mxCell>
        <mxCell id="DXdY7fNJdsDGyy_GN3W3-8" value="Handlers" style="rounded=0;whiteSpace=wrap;html=1;fillColor=#f8cecc;strokeColor=#b85450;dashed=1;strokeWidth=2;" vertex="1" parent="DXdY7fNJdsDGyy_GN3W3-1">
          <mxGeometry x="160" y="290" width="120" height="60" as="geometry" />
        </mxCell>
        <mxCell id="DXdY7fNJdsDGyy_GN3W3-9" style="edgeStyle=orthogonalEdgeStyle;rounded=0;orthogonalLoop=1;jettySize=auto;html=1;exitX=1;exitY=0.5;exitDx=0;exitDy=0;entryX=0;entryY=0.5;entryDx=0;entryDy=0;" edge="1" parent="DXdY7fNJdsDGyy_GN3W3-1" source="DXdY7fNJdsDGyy_GN3W3-10" target="DXdY7fNJdsDGyy_GN3W3-14">
          <mxGeometry relative="1" as="geometry" />
        </mxCell>
        <mxCell id="DXdY7fNJdsDGyy_GN3W3-10" value="Decoder" style="rounded=0;whiteSpace=wrap;html=1;" vertex="1" parent="DXdY7fNJdsDGyy_GN3W3-1">
          <mxGeometry x="-160" y="290" width="120" height="60" as="geometry" />
        </mxCell>
        <mxCell id="DXdY7fNJdsDGyy_GN3W3-11" style="edgeStyle=orthogonalEdgeStyle;rounded=0;orthogonalLoop=1;jettySize=auto;html=1;exitX=1;exitY=0.5;exitDx=0;exitDy=0;entryX=0;entryY=0.5;entryDx=0;entryDy=0;" edge="1" parent="DXdY7fNJdsDGyy_GN3W3-1" source="DXdY7fNJdsDGyy_GN3W3-12" target="DXdY7fNJdsDGyy_GN3W3-10">
          <mxGeometry relative="1" as="geometry" />
        </mxCell>
        <mxCell id="DXdY7fNJdsDGyy_GN3W3-12" value="SchemaVerifier" style="rounded=0;whiteSpace=wrap;html=1;" vertex="1" parent="DXdY7fNJdsDGyy_GN3W3-1">
          <mxGeometry x="-320" y="290" width="120" height="60" as="geometry" />
        </mxCell>
        <mxCell id="DXdY7fNJdsDGyy_GN3W3-13" style="edgeStyle=orthogonalEdgeStyle;rounded=0;orthogonalLoop=1;jettySize=auto;html=1;exitX=1;exitY=0.5;exitDx=0;exitDy=0;entryX=0;entryY=0.5;entryDx=0;entryDy=0;" edge="1" parent="DXdY7fNJdsDGyy_GN3W3-1" source="DXdY7fNJdsDGyy_GN3W3-14" target="DXdY7fNJdsDGyy_GN3W3-8">
          <mxGeometry relative="1" as="geometry" />
        </mxCell>
        <mxCell id="DXdY7fNJdsDGyy_GN3W3-14" value="Validators" style="rounded=0;whiteSpace=wrap;html=1;fillColor=#f8cecc;strokeColor=#b85450;dashed=1;strokeWidth=2;" vertex="1" parent="DXdY7fNJdsDGyy_GN3W3-1">
          <mxGeometry y="290" width="120" height="60" as="geometry" />
        </mxCell>
        <mxCell id="DXdY7fNJdsDGyy_GN3W3-15" value="SINK&lt;br&gt;(output)" style="ellipse;whiteSpace=wrap;html=1;fillColor=#dae8fc;strokeColor=#6c8ebf;" vertex="1" parent="DXdY7fNJdsDGyy_GN3W3-1">
          <mxGeometry x="320" y="400" width="120" height="80" as="geometry" />
        </mxCell>
        <mxCell id="DXdY7fNJdsDGyy_GN3W3-16" value="" style="html=1;shadow=0;dashed=0;align=center;verticalAlign=middle;shape=mxgraph.arrows2.twoWayArrow;dy=0.53;dx=18;strokeColor=#6c8ebf;fillColor=#dae8fc;rotation=90;" vertex="1" parent="DXdY7fNJdsDGyy_GN3W3-1">
          <mxGeometry x="20" y="365.89" width="80" height="20" as="geometry" />
        </mxCell>
        <mxCell id="DXdY7fNJdsDGyy_GN3W3-17" value="" style="html=1;shadow=0;dashed=0;align=center;verticalAlign=middle;shape=mxgraph.arrows2.twoWayArrow;dy=0.53;dx=18;strokeColor=#6c8ebf;fillColor=#dae8fc;rotation=45;" vertex="1" parent="DXdY7fNJdsDGyy_GN3W3-1">
          <mxGeometry x="-70" y="367.24" width="113" height="20" as="geometry" />
        </mxCell>
        <mxCell id="DXdY7fNJdsDGyy_GN3W3-18" value="" style="html=1;shadow=0;dashed=0;align=center;verticalAlign=middle;shape=mxgraph.arrows2.twoWayArrow;dy=0.53;dx=18;strokeColor=#6c8ebf;fillColor=#dae8fc;rotation=-45;" vertex="1" parent="DXdY7fNJdsDGyy_GN3W3-1">
          <mxGeometry x="82.61" y="365.89" width="109" height="20" as="geometry" />
        </mxCell>
        <mxCell id="DXdY7fNJdsDGyy_GN3W3-19" value="timestamp &amp;gt;= 0?&lt;br&gt;jsonrpc == &quot;2.0&quot;?&lt;br&gt;." style="whiteSpace=wrap;html=1;shape=mxgraph.basic.cloud_callout;fillColor=#d5e8d4;strokeColor=#82b366;" vertex="1" parent="DXdY7fNJdsDGyy_GN3W3-1">
          <mxGeometry x="-310" y="190" width="165" height="110" as="geometry" />
        </mxCell>
        <mxCell id="DXdY7fNJdsDGyy_GN3W3-20" value="JSON =&amp;gt; internal representation&lt;br&gt;." style="whiteSpace=wrap;html=1;shape=mxgraph.basic.cloud_callout;fillColor=#d5e8d4;strokeColor=#82b366;" vertex="1" parent="DXdY7fNJdsDGyy_GN3W3-1">
          <mxGeometry x="-153" y="190" width="165" height="110" as="geometry" />
        </mxCell>
        <mxCell id="DXdY7fNJdsDGyy_GN3W3-21" value="Is end_date &amp;gt;=&lt;br&gt;start_date ?&lt;br&gt;." style="whiteSpace=wrap;html=1;shape=mxgraph.basic.cloud_callout;fillColor=#d5e8d4;strokeColor=#82b366;" vertex="1" parent="DXdY7fNJdsDGyy_GN3W3-1">
          <mxGeometry x="10" y="190" width="165" height="110" as="geometry" />
        </mxCell>
        <mxCell id="DXdY7fNJdsDGyy_GN3W3-22" value="Process / Store&lt;br&gt;information&lt;br&gt;." style="whiteSpace=wrap;html=1;shape=mxgraph.basic.cloud_callout;fillColor=#d5e8d4;strokeColor=#82b366;" vertex="1" parent="DXdY7fNJdsDGyy_GN3W3-1">
          <mxGeometry x="170" y="190" width="165" height="110" as="geometry" />
        </mxCell>
        <mxCell id="DXdY7fNJdsDGyy_GN3W3-23" value="request =&amp;gt; reply&lt;br&gt;." style="whiteSpace=wrap;html=1;shape=mxgraph.basic.cloud_callout;fillColor=#d5e8d4;strokeColor=#82b366;" vertex="1" parent="DXdY7fNJdsDGyy_GN3W3-1">
          <mxGeometry x="330" y="190" width="165" height="110" as="geometry" />
        </mxCell>
      </root>
    </mxGraphModel>
  </diagram>
</mxfile>
